<?xml version="1.0" encoding="utf-8"?>
<!-- Generator: Adobe Illustrator 27.5.0, SVG Export Plug-In . SVG Version: 6.00 Build 0)  -->
<svg version="1.1" id="Layer_2" xmlns="http://www.w3.org/2000/svg" xmlns:xlink="http://www.w3.org/1999/xlink" x="0px" y="0px"
	 viewBox="0 0 841.9 595.3" style="enable-background:new 0 0 841.9 595.3;" xml:space="preserve">
<style type="text/css">
	.st0{fill:#B7410E;}
</style>
<g>
	<path class="st0" d="M390.4,210.5c0-1.8,0-3.6,0-5.4c-0.1-2.8-0.2-5.6-0.2-8.5c-0.1-3.1-0.3-6.1-0.2-9.2c0.1-6.5,0.2-13,0.5-19.5
		c0.1-3.6,0.5-7.2,0.7-10.8c0.2-4.2,0.5-8.5,0.4-12.7c-0.1-2.7-0.7-5.4-1.2-8.1c-0.4-2-0.8-4.1-1.5-6c-1.1-3.2-3.5-5.4-6.3-7.2
		c-2.6-1.7-5.7-2.2-8.6-2.9c-3.9-1-7.9-2.1-11.7-3.6c-3.2-1.2-5.4-3.9-7.1-6.8c-2-3.4-2.9-7-3.1-10.9c-0.1-2.9-0.3-5.7-0.2-8.6
		c0.1-3.4,0.2-6.9,2.6-9.6c1.7-1.9,3.7-3.7,5.7-5.2c4.9-3.7,10.5-5.7,16.4-6.9c4.6-1,9.3-1.7,14-2.4c2.8-0.4,5.7-0.6,8.6-0.7
		c3.5-0.2,7-0.2,10.5-0.3c3.8-0.1,7.6-0.5,11.4-0.4c6,0,12.1,0.1,18.1,0.5c6.4,0.4,12.7,1.1,19,2.3c6.3,1.2,12.5,2.7,18.2,5.9
		c3.7,2.1,7.1,4.4,9.5,8c1.2,1.8,1.8,3.8,1.9,6c0.1,2.1,0.4,4.1,0.4,6.1c0,2.3-0.2,4.6-0.5,6.9c-0.3,2.8-1,5.6-2.2,8.1
		c-2.5,5.2-6.6,8.4-12.2,9.9c-3.6,0.9-7.2,1.7-10.7,2.7c-4.9,1.3-9,3.9-11.2,8.5c-1.1,2.3-1.5,4.9-2,7.3c-0.9,3.9-1.3,7.9-1.2,11.9
		c0.1,3.5,0.1,7.1,0.5,10.6c0.7,5.7,0.6,11.4,0.7,17.1c0.1,6.5,0.3,13,0.4,19.5c0,2.9-0.1,5.9-0.2,8.8c-0.1,3.7-0.3,7.4-0.2,11.1
		c0.1,3.7,0.6,7.4,0.9,11.1c0.1,1.7,0.1,3.4,0.3,5.1c0.2,1.3,0.4,2.7,1.1,3.8c1,1.7,3.1,1.7,5,0.8c2.3-1.1,4.6-2.2,6.9-3.3
		c2.8-1.4,5.7-2.6,8.5-4.1c4.3-2.4,8.6-4.8,12.7-7.4c5.5-3.4,10.9-6.8,16.7-9.7c5.3-2.7,10.4-5.7,15.7-8.5c4.1-2.2,8.4-4.2,12.6-6.3
		c4.1-2.1,7.9-4.5,11.2-7.8c1.9-1.9,3.9-3.6,5.5-5.6c1.6-1.9,2-4.4,2.3-6.8c0.5-4.2-1.1-7.9-2.3-11.8c-1.1-3.7-2.3-7.4-2.3-11.3
		c0.1-4.2,1.7-7.8,4.2-11c3-3.8,7-6.3,11.1-8.7c1.9-1.1,3.8-2,5.8-2.9c2.8-1.4,5.8-1.3,8.8-0.5c5.3,1.6,10,4.3,14.2,8
		c4,3.4,7.3,7.4,10.7,11.3c4.7,5.6,8.6,11.6,12.4,17.8c2.7,4.5,5.5,9,8.1,13.6c3.2,5.6,6.2,11.3,9.1,17.1c4.1,8.2,7.4,16.7,9.4,25.6
		c0.5,2.3,0.5,4.7,0.8,7c0.4,3.2-0.2,6.3-0.7,9.4c-0.6,3.8-2.7,6.7-5.8,8.9c-4.6,3.2-9.4,6-14.8,7.6c-5.9,1.7-11.4,1.1-16.4-2.5
		c-0.8-0.6-1.6-1.2-2.2-1.9c-3-3.1-6-6.3-9.1-9.3c-3.3-3.1-7.3-4.9-11.9-4.5c-2.5,0.2-4.9,1.2-7.4,1.9c-5.4,1.5-10.2,4.4-14.9,7.5
		c-4.7,3.1-9.3,6.3-14.1,9.2c-7.1,4.4-14.3,8.6-21.5,12.8c-4.7,2.7-9.6,5.1-14.3,7.8c-4.5,2.7-8.8,5.7-13.1,8.6
		c-1.8,1.2-3.5,2.5-5.1,3.9c-1.8,1.6-1.3,3.6,0.4,4.8c4,2.8,8.2,5.4,12.3,8.2c6.9,4.8,13.7,9.6,20.5,14.5c4.8,3.5,9.5,7,14.2,10.6
		c4.4,3.4,8.8,6.9,13,10.4c4.4,3.6,8.7,7.3,13,11.1c3.6,3.1,7.1,6.2,10.6,9.4c2.6,2.4,5.2,4.8,7.7,7.3c3.2,3,6.4,6.1,9.6,9.1
		c2.9,2.8,5.8,5.5,8.6,8.3c4.3,4.4,8.5,8.9,12.6,13.3c2.1,2.3,4.2,4.5,6.2,6.9c1.3,1.6,0.8,3.6-0.8,3.8c-0.9,0.1-1.9,0.1-2.8-0.1
		c-4.6-1-9.3-2.1-13.9-3.2c-7.2-1.8-14.5-3.5-21.6-5.5c-9-2.5-18-5.2-26.9-8c-7.2-2.3-14.3-4.9-21.4-7.5c-6.9-2.5-13.7-5.2-20.5-8
		c-8.1-3.3-16.1-6.8-24.2-10.3c-2.7-1.2-5.4-2.6-8.1-3.9c-5-2.4-9.9-4.8-14.9-7.2c-1.6-0.8-3.2-1.6-4.9-2.1c-2.1-0.6-3.8,0.7-4,2.9
		c-0.2,2.8-0.3,5.7-0.5,8.5c-0.3,3.5-0.6,6.9-0.9,10.4c-0.1,1.4-0.1,2.9-0.3,4.3c-0.4,3.8-0.8,7.7-1.2,11.5c-0.3,2.9-0.6,5.9-1,8.8
		c-0.5,3.9-0.9,7.7-1.4,11.6c-0.4,3.2-0.8,6.3-1.2,9.5c-0.6,3.8-1.2,7.5-1.9,11.3c-0.9,4.8-1.7,9.7-2.7,14.5
		c-0.9,4.5-1.8,9.1-2.8,13.6c-1.2,5.3-2.3,10.6-3.7,15.9c-1.9,7.6-4,15.2-6.1,22.8c-1.9,6.7-4,13.4-6.1,20.1
		c-0.2,0.6-0.5,1.2-0.9,1.7c-1.3,1.6-2.8,1.5-3.7-0.3c-0.6-1.1-1.1-2.4-1.4-3.6c-1.4-4.7-2.8-9.4-4.2-14.1c-1.5-5.3-3-10.5-4.5-15.8
		c-1.1-4.2-2.2-8.3-3.2-12.5c-1.7-7-3.4-14.1-4.9-21.2c-1.1-5-2-10-2.9-15c-0.8-4.4-1.5-8.8-2.2-13.3c-0.8-5.5-1.6-11-2.4-16.5
		c-0.3-2.6-0.5-5.2-0.8-7.8c-0.3-2.9-0.8-5.8-1.1-8.8c-0.3-2.3-0.5-4.6-0.8-6.9c-0.3-3.8-0.7-7.6-1-11.3c-0.2-2.5-0.3-5.1-0.5-7.6
		c-0.2-3.4-0.3-6.7-0.8-10c-0.4-2.7-2.1-3.6-4.6-2.6c-2.8,1.2-5.6,2.6-8.3,4c-5.5,2.7-11,5.5-16.6,8c-4.9,2.2-10,4.2-15,6.3
		c-4.6,1.9-9.1,4-13.6,5.8c-6.3,2.5-12.5,5-18.9,7.3c-6.4,2.4-12.9,4.7-19.4,6.8c-8.4,2.7-17,5.1-25.5,7.6c-5,1.5-10.1,2.9-15.2,4.2
		c-7,1.7-14,3.3-21.1,4.9c-1.3,0.3-2.7,0.6-4.1,0.7c-2,0.1-2.9-1.4-1.9-3.2c0.5-0.9,1.1-1.8,1.9-2.6c3-3.3,6.1-6.5,9.2-9.7
		c5.8-6,11.7-12,17.5-18c1.4-1.5,3-2.9,4.5-4.3c4.1-3.9,8.2-7.8,12.3-11.6c3.4-3.1,6.8-6.1,10.3-9.1c4.4-3.7,8.8-7.5,13.3-11.1
		c4.8-3.9,9.7-7.7,14.6-11.5c5.2-3.9,10.3-7.8,15.6-11.6c7.6-5.4,15.3-10.7,23-16c1.8-1.3,3.8-2.4,5.6-3.6c2.6-1.7,2.6-4.6,0.1-6.3
		c-5.5-3.7-11-7.5-16.6-11.1c-2.3-1.5-4.7-2.7-7.1-4c-6.5-3.4-13-6.8-19.1-11c-4.1-2.7-8.5-5-12.6-7.6c-5.5-3.5-10.8-7.1-16.3-10.6
		c-4-2.5-8.4-4.1-12.9-5.4c-1.8-0.5-3.7-1.2-5.5-1.1c-2,0-4.1,0.6-5.9,1.3c-3.1,1.2-5.5,3.3-7.6,5.8c-3,3.5-6.1,6.9-10,9.4
		c-3.6,2.3-7.6,2.9-11.8,2.4c-3.7-0.4-7-1.8-10.2-3.4c-3.7-1.8-7.2-3.9-10.3-6.7c-2.3-2.1-3.2-4.8-3.7-7.7c-0.3-1.9-0.6-3.7-0.7-5.6
		c-0.1-1.8,0-3.7,0.2-5.5c0.5-4.7,1.8-9.2,3.3-13.6c1.9-5.5,3.9-10.9,6.6-16c2.7-5.1,5.5-10.2,8.2-15.3c1.2-2.2,2.3-4.6,3.6-6.7
		c3.5-5.8,7-11.6,10.8-17.3c2.8-4.1,5.9-8,9-11.8c2-2.5,4.1-4.9,6.4-7.2c5.1-4.9,10.8-8.6,17.7-10.4c3-0.8,5.9-0.3,8.6,1.1
		c3.7,2,7.5,4.1,11,6.5c3.8,2.5,6.6,6.1,8.3,10.4c1.5,4,1.1,8,0,11.9c-1,3.6-2.1,7.1-3.1,10.7c-1.8,6.8,0.5,13,6,17.1
		c2.6,1.9,4.9,4.1,7.5,6c1.7,1.3,3.7,2.3,5.6,3.3c5.2,2.7,10.6,5,15.6,7.9c8.5,5,17.6,9,25.9,14.5c6.7,4.4,13.6,8.6,21,12
		c3.6,1.7,7.3,3.4,11,5c2.3,0.9,4,0,4.6-2.4c0.4-1.5,0.5-3,0.6-4.5c0.3-3.8,0.5-7.6,0.7-11.4c0.2-2.7,0.2-5.3,0.4-8
		C390.5,210.5,390.5,210.5,390.4,210.5z"/>
</g>
</svg>
